<svg width="86" height="86" viewBox="0 0 86 86" fill="none" xmlns="http://www.w3.org/2000/svg">
<path d="M43 39.4169C45.8349 39.4169 48.6061 38.5763 50.9632 37.0013C53.3203 35.4263 55.1574 33.1878 56.2423 30.5687C57.3271 27.9496 57.611 25.0677 57.0579 22.2873C56.5049 19.5069 55.1398 16.9529 53.1352 14.9484C51.1307 12.9438 48.5767 11.5787 45.7963 11.0257C43.0159 10.4726 40.134 10.7565 37.5149 11.8413C34.8958 12.9262 32.6573 14.7633 31.0823 17.1204C29.5073 19.4775 28.6667 22.2487 28.6667 25.0836C28.6667 28.885 30.1768 32.5308 32.8648 35.2188C35.5528 37.9068 39.1986 39.4169 43 39.4169Z" fill="#C5E600"/>
<path d="M64.5 75.2499C65.4504 75.2499 66.3618 74.8724 67.0338 74.2004C67.7058 73.5284 68.0834 72.6169 68.0834 71.6666C68.0834 65.0141 65.4407 58.634 60.7366 53.93C56.0326 49.226 49.6525 46.5833 43 46.5833C36.3475 46.5833 29.9675 49.226 25.2634 53.93C20.5594 58.634 17.9167 65.0141 17.9167 71.6666C17.9167 72.6169 18.2942 73.5284 18.9662 74.2004C19.6382 74.8724 20.5497 75.2499 21.5 75.2499H64.5Z" fill="#C5E600"/>
</svg>
