<svg width="88" height="88" viewBox="0 0 88 88" fill="none" xmlns="http://www.w3.org/2000/svg">
<path d="M49.5004 44C49.5004 40.9624 47.0379 38.5 44.0004 38.5C40.9628 38.5 38.5004 40.9624 38.5004 44C38.5004 47.0376 40.9628 49.5 44.0004 49.5C47.0379 49.5 49.5004 47.0376 49.5004 44Z" fill="#48FCA6"/>
<path d="M42.1672 7.81014C38.0972 10.1568 17.6739 23.0635 18.3339 44.9902C18.8472 65.2668 36.6672 77.0002 42.1672 80.1902C42.7246 80.512 43.3569 80.6814 44.0005 80.6814C44.6442 80.6814 45.2765 80.512 45.8339 80.1902C49.8305 77.8802 69.6672 65.5235 69.6672 43.9268V43.0102C69.1539 22.7335 51.3339 10.9635 45.8339 7.81014C45.2765 7.48833 44.6442 7.31891 44.0005 7.31891C43.3569 7.31891 42.7246 7.48833 42.1672 7.81014ZM56.8339 44.0002C56.8339 46.5383 56.0812 49.0195 54.6711 51.13C53.2609 53.2404 51.2566 54.8853 48.9116 55.8566C46.5667 56.8279 43.9863 57.0821 41.4969 56.5869C39.0075 56.0917 36.7208 54.8695 34.926 53.0747C33.1312 51.2799 31.909 48.9932 31.4138 46.5038C30.9186 44.0144 31.1728 41.434 32.1441 39.0891C33.1154 36.7441 34.7603 34.7398 36.8707 33.3296C38.9812 31.9195 41.4624 31.1668 44.0005 31.1668C47.4042 31.1668 50.6684 32.5189 53.0751 34.9256C55.4818 37.3323 56.8339 40.5965 56.8339 44.0002Z" fill="#48FCA6"/>
</svg>
