<svg width="89" height="89" viewBox="0 0 89 89" fill="none" xmlns="http://www.w3.org/2000/svg">
<path d="M55.625 59.3334H33.375C32.3914 59.3334 31.4482 59.7241 30.7528 60.4195C30.0573 61.115 29.6666 62.0582 29.6666 63.0417C29.6666 64.0252 30.0573 64.9685 30.7528 65.6639C31.4482 66.3593 32.3914 66.75 33.375 66.75H55.625C56.6085 66.75 57.5517 66.3593 58.2471 65.6639C58.9426 64.9685 59.3333 64.0252 59.3333 63.0417C59.3333 62.0582 58.9426 61.115 58.2471 60.4195C57.5517 59.7241 56.6085 59.3334 55.625 59.3334Z" fill="white"/>
<path d="M33.375 51.9165H44.5C45.4835 51.9165 46.4267 51.5258 47.1221 50.8304C47.8176 50.135 48.2083 49.1917 48.2083 48.2082C48.2083 47.2247 47.8176 46.2815 47.1221 45.586C46.4267 44.8906 45.4835 44.4999 44.5 44.4999H33.375C32.3914 44.4999 31.4482 44.8906 30.7528 45.586C30.0573 46.2815 29.6666 47.2247 29.6666 48.2082C29.6666 49.1917 30.0573 50.135 30.7528 50.8304C31.4482 51.5258 32.3914 51.9165 33.375 51.9165Z" fill="white"/>
<path d="M73.2024 30.8901L53.0291 8.64007C52.6824 8.25591 52.2591 7.94857 51.7865 7.73781C51.3139 7.52705 50.8024 7.41754 50.2849 7.41632H24.3266C23.0945 7.40162 21.8716 7.62977 20.7276 8.08773C19.5837 8.5457 18.5412 9.22451 17.6597 10.0854C16.7781 10.9463 16.0748 11.9724 15.5898 13.1051C15.1049 14.2379 14.8478 15.4551 14.8333 16.6871V72.3121C14.8478 73.5442 15.1049 74.7614 15.5898 75.8941C16.0748 77.0269 16.7781 78.053 17.6597 78.9139C18.5412 79.7748 19.5837 80.4536 20.7276 80.9116C21.8716 81.3695 23.0945 81.5977 24.3266 81.583H64.6733C65.9053 81.5977 67.1283 81.3695 68.2722 80.9116C69.4161 80.4536 70.4586 79.7748 71.3402 78.9139C72.2217 78.053 72.9251 77.0269 73.41 75.8941C73.895 74.7614 74.1521 73.5442 74.1666 72.3121V33.3746C74.1642 32.4556 73.8206 31.5702 73.2024 30.8901ZM51.9166 18.5413L62.0774 29.6663H54.6608C54.2724 29.6429 53.8926 29.5423 53.5436 29.3705C53.1945 29.1987 52.8832 28.9591 52.6277 28.6657C52.3723 28.3722 52.1778 28.0309 52.0557 27.6615C51.9336 27.2921 51.8863 26.9021 51.9166 26.5142V18.5413ZM64.6733 74.1663H24.3266C24.0684 74.1813 23.8098 74.1453 23.5655 74.0601C23.3213 73.975 23.0963 73.8425 22.9034 73.6703C22.7104 73.498 22.5534 73.2894 22.4413 73.0563C22.3292 72.8233 22.2641 72.5704 22.2499 72.3121V16.6871C22.2641 16.4289 22.3292 16.176 22.4413 15.9429C22.5534 15.7099 22.7104 15.5013 22.9034 15.329C23.0963 15.1567 23.3213 15.0243 23.5655 14.9391C23.8098 14.854 24.0684 14.818 24.3266 14.833H44.4999V26.5142C44.4401 29.2459 45.4632 31.8903 47.3459 33.8703C49.2287 35.8504 51.8183 37.0053 54.5495 37.083H66.7499V72.3121C66.7357 72.5704 66.6707 72.8233 66.5585 73.0563C66.4464 73.2894 66.2894 73.498 66.0965 73.6703C65.9035 73.8425 65.6785 73.975 65.4343 74.0601C65.1901 74.1453 64.9314 74.1813 64.6733 74.1663Z" fill="white"/>
</svg>
